<?xml version="1.0" standalone="no"?>
<!DOCTYPE svg PUBLIC "-//W3C//DTD SVG 20010904//EN"
 "http://www.w3.org/TR/2001/REC-SVG-20010904/DTD/svg10.dtd">
<svg version="1.0" xmlns="http://www.w3.org/2000/svg"
 width="1080.000000pt" height="1080.000000pt" viewBox="0 0 1080.000000 1080.000000"
 preserveAspectRatio="xMidYMid meet">
<metadata>
Created by potrace 1.11, written by Peter Selinger 2001-2013
</metadata>
<g transform="translate(0.000000,1080.000000) scale(0.100000,-0.100000)"
fill="#000000" stroke="none">
<path d="M0 5400 l0 -5400 5400 0 5400 0 0 5400 0 5400 -5400 0 -5400 0 0
-5400z m5508 3998 c45 -6 87 -17 93 -24 24 -29 -68 -330 -154 -503 -55 -108
-77 -132 -142 -150 -125 -35 -225 18 -225 118 0 70 38 371 51 411 22 64 61
109 124 141 65 33 66 33 253 7z m-457 -17 c36 -36 37 -62 5 -161 -13 -41 -31
-124 -41 -185 -26 -178 -36 -217 -63 -268 -32 -60 -90 -97 -152 -97 -36 0 -48
6 -80 38 -35 35 -38 43 -45 113 -7 75 12 249 37 344 38 144 145 244 261 245
40 0 53 -5 78 -29z m904 -27 c64 -30 81 -80 59 -175 -17 -76 -146 -347 -189
-398 -50 -59 -116 -73 -224 -50 -65 14 -101 42 -101 79 0 47 194 502 223 524
49 36 175 47 232 20z m-1315 -14 c10 -5 20 -16 23 -24 11 -29 -105 -625 -131
-670 -26 -44 -65 -68 -121 -74 -66 -6 -110 12 -127 53 -15 36 -9 96 25 235 11
47 27 138 36 204 10 81 21 127 34 145 11 15 21 47 23 71 3 44 3 44 58 62 57
18 144 17 180 -2z m1758 -49 c92 -68 84 -170 -41 -469 -64 -153 -87 -182 -147
-189 -54 -6 -266 41 -292 64 -10 9 -18 29 -18 44 0 22 123 353 187 502 25 58
67 74 194 76 69 1 80 -2 117 -28z m-2196 -90 l33 -30 -1 -148 c-2 -320 -67
-544 -173 -600 -58 -30 -116 -31 -132 -1 -44 82 -50 242 -18 476 l22 154 -21
28 -21 27 27 26 c63 58 142 95 209 96 34 1 50 -5 75 -28z m2647 -57 c124 -28
221 -107 221 -179 0 -41 -26 -81 -115 -174 -73 -76 -189 -163 -284 -212 -44
-23 -44 -23 -153 -7 -113 17 -138 27 -138 59 0 11 33 86 74 167 40 81 90 192
110 247 21 55 45 106 54 113 20 16 129 9 231 -14z m-3039 -120 c39 -16 40 -18
40 -63 0 -74 -29 -450 -40 -532 -13 -93 -24 -104 -167 -174 l-111 -53 -17 57
c-12 39 -20 116 -26 256 -4 110 -12 220 -18 245 -11 49 -6 101 15 140 57 110
211 169 324 124z m3607 -135 c69 -33 141 -137 129 -184 -4 -17 -79 -72 -264
-195 l-257 -172 -50 5 c-34 4 -81 21 -147 57 l-98 51 15 28 c23 46 62 88 144
153 42 34 115 99 162 143 94 91 121 111 177 131 47 18 133 10 189 -17z m-4061
-100 c30 -28 39 -58 60 -197 15 -99 15 -128 5 -230 -7 -64 -19 -131 -26 -147
-22 -53 -177 -181 -206 -170 -20 8 -33 31 -93 164 -28 64 -82 164 -119 223
-37 58 -67 115 -67 126 0 26 136 171 198 211 94 60 196 69 248 20z m4413 -80
c119 -41 174 -106 152 -179 -20 -68 -153 -173 -366 -289 -151 -83 -207 -99
-286 -82 -63 14 -117 47 -125 77 -19 73 149 230 390 365 77 43 116 84 116 121
0 21 31 17 119 -13z m-4988 -247 c92 -59 212 -223 280 -383 24 -56 30 -83 26
-116 -6 -52 -8 -56 -119 -149 -119 -99 -149 -105 -191 -38 -50 78 -256 453
-262 474 -10 41 87 178 150 212 28 15 55 28 61 28 5 0 30 -13 55 -28z m5469
-72 c43 -54 66 -108 54 -127 -5 -8 -86 -54 -179 -102 -94 -49 -222 -116 -285
-151 -101 -56 -122 -64 -170 -64 -43 -1 -63 4 -89 23 -32 23 -70 89 -71 122 0
36 47 72 184 141 77 38 178 93 224 121 55 33 100 53 135 58 38 6 57 15 70 34
l19 25 40 -22 c22 -13 53 -39 68 -58z m-5753 -257 c45 -36 84 -106 164 -291
77 -178 76 -191 -7 -293 -31 -38 -66 -77 -78 -85 -30 -21 -70 -17 -93 9 -11
12 -75 119 -142 238 -136 241 -140 257 -94 337 34 60 51 80 88 104 44 28 115
20 162 -19z m5991 -9 c58 -29 91 -67 99 -117 8 -54 -37 -97 -144 -137 -49 -18
-131 -61 -186 -97 -124 -81 -152 -93 -225 -93 -119 0 -200 76 -172 160 20 62
146 172 261 231 161 81 278 98 367 53z m-6331 -261 c50 -55 167 -232 219 -332
24 -47 53 -102 64 -121 39 -68 17 -160 -56 -233 -40 -40 -78 -52 -126 -41 -49
10 -316 276 -352 349 -32 67 -35 140 -6 200 21 44 188 215 210 215 7 0 28 -17
47 -37z m6524 -5 c78 -26 123 -73 210 -219 25 -42 37 -72 33 -83 -15 -39 -325
-156 -523 -197 -51 -10 -99 -19 -106 -19 -27 0 -119 81 -147 129 -26 45 -28
54 -19 88 6 21 14 43 18 49 11 15 204 143 291 192 122 69 177 83 243 60z
m-6855 -394 c23 -11 48 -39 80 -91 25 -41 93 -123 149 -182 57 -60 113 -127
124 -149 63 -123 14 -242 -98 -242 -64 0 -121 37 -241 159 -103 104 -143 168
-179 286 l-22 70 22 57 c36 97 91 127 165 92z m7222 -41 c20 -17 49 -55 64
-85 23 -49 25 -61 17 -99 -21 -90 -81 -120 -366 -179 -181 -38 -211 -35 -267
24 -21 22 -52 69 -69 104 -50 107 -36 119 224 198 309 93 325 95 397 37z
m-7410 -363 c26 -31 87 -101 136 -156 49 -54 125 -143 169 -198 95 -117 106
-156 64 -223 -53 -85 -111 -104 -167 -57 -17 15 -57 61 -88 103 -30 42 -100
121 -153 176 -63 65 -105 117 -118 148 -12 29 -30 52 -46 59 -29 13 -31 25
-10 74 32 77 115 151 152 137 8 -3 35 -31 61 -63z m7582 25 c39 -20 115 -112
139 -168 11 -26 16 -47 12 -47 -5 0 -12 -15 -15 -34 -8 -43 -39 -70 -142 -123
-127 -67 -318 -123 -415 -123 -32 0 -46 7 -78 39 -46 46 -108 170 -117 232 -5
35 -2 47 12 61 11 9 96 39 189 67 94 28 211 64 260 81 104 34 116 35 155 15z
m-3680 -82 c27 -16 79 -93 63 -93 -4 0 -8 -22 -8 -50 0 -43 -5 -54 -32 -82
l-33 -32 -82 12 c-45 6 -88 18 -95 25 -22 22 -27 102 -9 149 30 79 125 113
196 71z m-206 -254 c30 -24 34 -64 10 -110 -8 -17 -13 -33 -11 -35 2 -3 64
-16 136 -29 72 -14 140 -29 151 -35 43 -23 32 -104 -16 -116 -22 -6 -210 20
-309 42 -16 4 -24 -5 -42 -52 -13 -32 -22 -59 -20 -60 1 -1 72 -16 157 -34
166 -33 200 -50 200 -99 0 -14 -34 -112 -76 -218 -92 -235 -122 -268 -190
-210 -39 34 -35 61 28 222 31 77 55 141 54 142 -2 2 -69 16 -149 33 -81 16
-156 34 -167 40 -24 13 -40 41 -40 70 0 31 160 421 183 448 26 28 66 28 101 1z
m-837 -9 c305 -21 440 -79 418 -181 -5 -23 -11 -28 -28 -24 -12 3 -134 23
-272 45 -137 22 -262 43 -277 46 -27 5 -28 8 -28 65 0 69 -22 63 187 49z
m-3000 -79 c68 -46 229 -209 325 -330 93 -117 110 -203 58 -289 -25 -40 -51
-41 -133 -3 -89 41 -173 108 -284 228 -101 108 -134 133 -177 133 -20 0 -26 6
-31 33 -8 43 11 150 36 198 41 82 112 92 206 30z m7937 -68 c162 -205 175
-433 25 -458 -109 -19 -419 49 -515 111 -29 19 -124 188 -124 221 0 33 33 49
140 68 52 9 163 38 245 65 83 26 158 48 167 49 9 0 37 -25 62 -56z m-4806 -38
c151 -24 275 -45 277 -47 2 -2 -2 -56 -8 -120 l-11 -118 -215 0 c-233 0 -277
7 -321 48 -27 26 -28 30 -34 158 l-7 131 23 -4 c13 -2 146 -23 296 -48z m1175
-26 c21 -6 56 -28 78 -50 39 -39 39 -39 120 -39 96 0 119 -10 119 -51 0 -39
-27 -49 -134 -49 -69 0 -89 -4 -117 -23 -57 -37 -74 -89 -119 -362 -23 -137
-45 -260 -50 -272 l-10 -23 -265 0 -266 0 -30 -35 c-35 -40 -54 -44 -69 -15
-10 19 -12 18 -57 -10 -57 -36 -102 -50 -164 -50 -132 0 -253 88 -296 215 -9
27 -17 32 -81 46 -39 9 -75 20 -81 24 -19 11 -12 54 12 69 20 14 29 14 77 1
42 -11 56 -12 62 -2 15 23 8 32 -24 32 -29 0 -33 3 -30 25 5 34 48 112 89 160
47 54 158 107 243 115 161 16 322 -87 380 -242 22 -58 28 -161 14 -217 l-6
-26 211 0 c116 0 211 1 211 3 0 1 18 108 40 237 43 255 70 333 130 384 49 41
39 55 -48 67 -61 9 -82 22 -82 55 0 42 61 56 143 33z m-4357 -351 c313 -295
330 -312 337 -345 6 -30 -32 -256 -45 -269 -10 -9 -103 28 -148 59 -25 17 -90
67 -145 110 -55 44 -125 92 -155 108 -78 40 -96 57 -124 119 -41 89 -32 169
28 254 36 50 80 86 107 86 8 0 73 -55 145 -122z m4750 -39 c116 -44 194 -158
194 -284 0 -265 -324 -406 -511 -221 -70 68 -94 126 -94 221 0 65 5 89 25 130
73 146 235 210 386 154z m3005 -55 c96 -20 210 -39 254 -43 91 -9 134 -27 168
-73 48 -64 61 -100 61 -173 1 -87 -32 -158 -76 -163 -29 -3 -569 161 -606 185
-30 18 -61 87 -62 133 0 19 -9 63 -19 97 l-19 62 27 4 c63 10 108 5 272 -29z
m-7901 -339 c80 -40 175 -109 253 -184 98 -94 107 -112 118 -237 14 -158 9
-162 -146 -119 -49 14 -169 37 -265 51 -96 14 -178 28 -181 32 -15 17 -34 145
-33 227 1 105 16 167 51 214 50 65 99 69 203 16z m7991 -86 c46 -12 142 -44
212 -71 121 -47 144 -51 197 -37 10 3 24 -15 43 -52 34 -68 47 -188 25 -229
-21 -40 -74 -62 -133 -54 -107 13 -465 150 -547 209 -28 21 -53 50 -66 79 -22
45 -29 120 -14 143 24 38 157 43 283 12z m16 -428 c66 -33 165 -76 219 -96
122 -46 143 -56 173 -89 15 -16 35 -26 52 -26 47 0 62 -25 57 -99 -4 -68 -30
-136 -60 -155 -12 -7 -40 1 -115 36 -54 25 -183 79 -286 119 -204 80 -257 113
-277 175 -23 69 5 164 53 184 41 16 64 10 184 -49z m-4899 -7 c94 -47 136
-167 98 -282 -56 -168 -297 -186 -378 -29 -29 58 -30 166 -1 222 56 108 170
144 281 89z m-1263 -156 c39 -95 78 -192 88 -216 l17 -43 -22 3 c-18 2 -29 18
-48 65 l-25 63 -101 0 -102 0 -25 -62 c-18 -46 -30 -64 -46 -66 -11 -2 -21 -1
-21 3 0 3 25 68 56 143 119 292 114 282 137 282 19 0 32 -24 92 -172z m418
156 c78 -40 111 -98 111 -200 0 -62 -3 -78 -29 -119 -47 -76 -93 -95 -227 -95
l-108 0 0 215 0 215 110 0 c83 0 119 -4 143 -16z m438 -22 c52 -58 33 -143
-40 -179 l-39 -19 55 -70 c29 -38 63 -81 74 -96 l20 -28 -24 0 c-18 0 -41 22
-98 95 -66 86 -77 95 -106 95 l-33 0 0 -95 c0 -88 -1 -95 -20 -95 -19 0 -20 7
-20 216 l0 216 101 -4 c99 -3 101 -3 130 -36z m649 -177 c0 -208 -1 -215 -20
-215 -19 0 -20 7 -20 215 0 208 1 215 20 215 19 0 20 -7 20 -215z m400 200 c0
-12 -15 -15 -75 -15 l-75 0 0 -200 c0 -193 -1 -200 -20 -200 -19 0 -20 7 -20
200 l0 200 -75 0 c-60 0 -75 3 -75 15 0 13 26 15 170 15 144 0 170 -2 170 -15z
m487 -4 c26 -12 52 -35 70 -62 26 -39 28 -50 28 -134 0 -80 -3 -96 -24 -127
-48 -69 -80 -83 -213 -87 l-118 -3 0 216 0 216 108 0 c83 0 116 -5 149 -19z
m463 4 c0 -12 -19 -15 -110 -15 l-110 0 0 -80 0 -80 90 0 c83 0 90 -1 90 -20
0 -19 -7 -20 -90 -20 l-90 0 0 -85 0 -85 110 0 c91 0 110 -3 110 -15 0 -13
-21 -15 -130 -15 l-130 0 0 215 0 215 130 0 c109 0 130 -2 130 -15z m130 -185
l0 -200 100 0 c82 0 100 -3 100 -15 0 -12 -20 -15 -120 -15 l-120 0 0 215 c0
208 1 215 20 215 19 0 20 -7 20 -200z m300 -15 c0 -208 -1 -215 -20 -215 -19
0 -20 7 -20 215 0 208 1 215 20 215 19 0 20 -7 20 -215z m180 30 c41 -102 76
-182 78 -177 1 4 35 86 75 182 61 149 76 175 95 178 22 3 22 2 9 -30 -7 -18
-47 -115 -88 -215 -61 -151 -77 -183 -94 -183 -17 0 -33 32 -94 183 -41 100
-81 197 -88 215 -13 31 -12 32 9 32 20 0 32 -22 98 -185z m600 170 c0 -12 -19
-15 -115 -15 l-115 0 0 -80 0 -80 95 0 c88 0 95 -1 95 -20 0 -19 -7 -20 -95
-20 l-96 0 3 -82 3 -83 113 -3 c90 -2 112 -5 112 -17 0 -12 -23 -15 -135 -15
l-135 0 0 215 0 215 135 0 c113 0 135 -2 135 -15z m296 -4 c42 -26 60 -78 44
-126 -12 -37 -65 -85 -94 -85 -11 0 7 -29 59 -94 41 -51 75 -96 75 -100 0 -3
-9 -6 -20 -6 -13 0 -45 32 -95 95 -70 87 -79 95 -110 95 l-35 0 0 -95 c0 -88
-1 -95 -20 -95 -19 0 -20 7 -20 215 l0 215 93 0 c73 0 98 -4 123 -19z m194
-86 c35 -57 67 -102 70 -99 3 3 32 49 66 102 42 67 68 98 83 100 11 2 21 0 21
-3 0 -4 -34 -61 -75 -126 l-75 -118 0 -91 c0 -83 -1 -90 -20 -90 -18 0 -20 7
-20 85 l0 85 -73 118 c-40 64 -77 123 -81 130 -5 8 0 12 16 12 18 0 36 -21 88
-105z m-6219 -15 c131 -26 167 -45 198 -100 21 -38 24 -55 24 -154 0 -146 -11
-171 -73 -170 -89 1 -534 75 -559 92 -32 23 -81 153 -81 215 0 77 32 112 125
138 48 14 253 2 366 -21z m7824 -274 c54 -15 204 -76 297 -121 149 -71 221
-241 142 -335 -22 -25 -33 -30 -72 -30 -38 0 -63 9 -132 50 -47 28 -128 64
-180 81 -127 42 -183 73 -236 132 -36 40 -44 56 -44 88 0 52 21 101 55 127 33
26 95 29 170 8z m-7862 -202 c100 -25 192 -52 204 -60 30 -19 47 -55 68 -144
16 -69 16 -78 2 -112 -23 -55 -51 -58 -231 -31 -251 39 -355 61 -386 83 -20
14 -35 40 -50 86 -39 116 -27 173 45 205 66 30 145 24 348 -27z m3697 -9 c0
-14 5 -25 10 -25 6 0 10 -7 10 -15 0 -8 -4 -15 -10 -15 -13 0 -13 -63 1 -77
14 -14 -5 -27 -26 -19 -10 4 -15 20 -15 51 0 25 -4 45 -10 45 -5 0 -10 7 -10
15 0 8 5 15 10 15 6 0 10 11 10 25 0 16 6 25 15 25 9 0 15 -9 15 -25z m292 8
c29 -26 23 -70 -14 -104 l-32 -29 32 0 c22 0 32 -5 32 -15 0 -12 -13 -15 -60
-15 -74 0 -77 11 -15 69 49 46 52 53 31 70 -11 10 -20 10 -36 1 -32 -17 -53 5
-26 26 26 19 65 18 88 -3z m164 -4 c42 -46 15 -159 -38 -159 -68 0 -97 105
-47 166 17 21 63 17 85 -7z m124 -69 c0 -73 -3 -90 -15 -90 -12 0 -15 14 -15
65 0 51 -3 65 -15 65 -21 0 -19 27 3 39 38 22 42 14 42 -79z m142 73 c12 -11
18 -30 18 -60 0 -36 -6 -50 -30 -75 -29 -29 -60 -34 -67 -12 -2 6 7 15 19 21
22 10 22 10 -7 24 -40 19 -54 59 -31 93 20 31 69 35 98 9z m-938 -52 c30 -33
17 -55 -34 -61 -27 -3 -39 -8 -29 -11 8 -4 27 -5 42 -2 29 6 35 -5 15 -25 -13
-13 -57 -16 -74 -4 -20 13 -35 52 -29 72 16 50 76 67 109 31z m135 5 c16 -19
-2 -30 -32 -20 -26 8 -17 -4 15 -20 45 -22 30 -76 -21 -76 -36 0 -55 14 -48
34 5 13 11 15 26 6 23 -12 31 -13 31 -2 0 4 -13 13 -30 19 -50 19 -35 73 21
73 15 0 32 -6 38 -14z m181 -96 c0 -21 -24 -28 -35 -10 -8 14 3 30 21 30 8 0
14 -9 14 -20z m4107 -92 c194 -67 209 -74 266 -127 69 -64 85 -120 62 -217
-17 -76 -72 -221 -86 -230 -13 -7 -180 72 -269 128 -89 56 -218 157 -262 206
-26 29 -39 54 -43 85 -16 108 47 216 127 217 15 0 107 -28 205 -62z m-7992
-149 c128 -11 220 -28 327 -60 78 -23 105 -51 133 -137 24 -75 12 -132 -36
-170 -24 -18 -237 -44 -379 -46 -115 -1 -129 1 -174 24 -81 41 -103 78 -121
200 -8 58 -15 126 -15 153 l0 47 73 0 c39 0 126 -5 192 -11z m2269 -187 c-7
-37 -24 -43 -24 -9 0 21 19 51 27 43 2 -1 0 -17 -3 -34z m38 -2 c-5 -32 -32
-42 -32 -12 0 18 18 42 30 42 4 0 5 -13 2 -30z m1093 -51 c-3 -45 -9 -88 -12
-95 -6 -17 -23 -19 -23 -3 0 8 -4 8 -14 -1 -8 -6 -25 -10 -38 -8 -19 2 -24 10
-26 41 -4 51 19 87 57 87 24 0 30 5 35 30 3 17 11 30 17 30 8 0 10 -22 4 -81z
m222 39 c-3 -24 -9 -67 -12 -95 -5 -38 -11 -53 -22 -53 -12 0 -14 9 -9 43 3
23 8 66 12 95 5 36 11 52 21 52 12 0 14 -9 10 -42z m79 31 c10 -17 -13 -36
-27 -22 -12 12 -4 33 11 33 5 0 12 -5 16 -11z m1960 -31 c-3 -24 -8 -66 -12
-94 l-6 -51 -44 -1 c-52 0 -69 16 -60 60 9 43 33 68 68 68 24 0 28 4 28 30 0
21 5 30 16 30 13 0 15 -8 10 -42z m74 18 c0 -13 -8 -30 -17 -37 -15 -13 -16
-11 -10 11 4 14 7 31 7 38 0 6 5 12 10 12 6 0 10 -11 10 -24z m40 6 c0 -18
-18 -42 -30 -42 -4 0 -5 14 -2 30 5 32 32 42 32 12z m-2625 -22 c-5 -14 -2
-20 9 -20 9 0 16 -4 16 -10 0 -5 -6 -10 -14 -10 -7 0 -16 -14 -20 -31 -10 -49
-8 -62 9 -55 9 3 15 0 15 -9 0 -21 -46 -19 -54 1 -4 9 -3 32 0 51 5 25 3 38
-7 44 -11 6 -10 9 4 15 9 3 17 15 17 25 0 11 7 19 16 19 11 0 14 -6 9 -20z
m2055 0 c0 -11 7 -20 15 -20 8 0 15 -4 15 -10 0 -5 -6 -10 -14 -10 -17 0 -26
-22 -26 -61 0 -19 5 -29 15 -29 8 0 15 -5 15 -11 0 -6 -12 -9 -27 -7 -27 3
-28 6 -27 53 0 28 -4 53 -10 58 -7 5 -5 11 7 18 9 5 17 17 17 24 0 8 5 15 10
15 6 0 10 -9 10 -20z m2556 -16 c127 -86 382 -272 396 -289 10 -11 20 -33 23
-50 7 -36 -9 -145 -27 -182 -35 -70 -127 -89 -209 -41 -98 57 -330 253 -356
301 -21 38 -16 136 11 194 46 97 90 116 162 67z m-5396 -16 c0 -9 3 -9 12 0
21 21 57 14 69 -12 9 -19 8 -32 -7 -63 -15 -31 -25 -39 -51 -41 -25 -2 -33 -8
-33 -23 0 -11 -7 -19 -16 -19 -17 0 -17 7 2 133 5 34 24 54 24 25z m200 -4 c0
-8 -7 -14 -15 -14 -19 0 -35 -31 -35 -69 0 -21 -5 -31 -15 -31 -17 0 -18 15
-9 83 6 43 8 45 40 45 23 0 34 -5 34 -14z m126 -9 c15 -23 15 -27 -3 -62 -31
-64 -103 -56 -103 11 0 70 71 105 106 51z m144 13 c0 -9 3 -9 12 0 15 15 55
16 63 1 13 -19 -5 -119 -21 -119 -11 0 -13 11 -8 56 6 46 4 56 -7 52 -19 -6
-39 -47 -39 -80 0 -19 -5 -28 -16 -28 -14 0 -16 8 -10 49 4 28 2 52 -3 55 -15
10 -41 -35 -41 -71 0 -23 -5 -33 -15 -33 -16 0 -18 15 -9 82 l6 46 44 0 c27 1
44 -3 44 -10z m150 1 c0 -8 4 -8 14 1 8 6 25 10 38 8 19 -2 24 -10 26 -41 4
-52 -19 -87 -58 -87 -23 0 -30 -4 -30 -20 0 -12 -7 -20 -16 -20 -14 0 -15 9
-10 68 4 37 10 75 12 85 6 19 24 24 24 6z m558 -10 c4 -23 -25 -49 -54 -49
-15 0 -24 -6 -24 -15 0 -21 24 -29 49 -15 17 8 21 8 21 -4 0 -26 -66 -36 -88
-14 -22 22 -9 89 22 111 19 13 71 3 74 -14z m147 -31 c-8 -66 -12 -78 -25 -78
-11 0 -13 37 -4 93 4 22 12 37 21 37 11 0 12 -11 8 -52z m76 10 l11 -43 21 43
c12 23 27 42 34 42 18 0 17 -2 -17 -70 -17 -33 -36 -60 -44 -60 -8 0 -18 20
-25 48 -7 26 -14 55 -17 65 -4 11 0 17 10 17 9 0 20 -16 27 -42z m199 27 c10
-13 10 -19 -5 -35 -10 -11 -29 -20 -42 -20 -14 0 -23 -6 -23 -15 0 -21 27 -30
45 -15 20 17 32 5 15 -15 -15 -18 -61 -20 -78 -3 -17 17 -15 69 4 96 18 26 65
30 84 7z m120 -1 c0 -8 -7 -14 -15 -14 -16 0 -29 -25 -39 -72 -4 -16 -13 -28
-20 -28 -8 0 -13 8 -11 18 2 9 7 37 10 63 5 43 7 45 40 46 24 1 35 -3 35 -13z
m61 -26 l11 -43 21 43 c12 23 27 42 34 42 7 0 13 -3 13 -6 0 -18 -87 -164 -97
-164 -16 0 -16 5 -1 29 11 17 3 70 -18 125 -4 10 -1 16 10 16 10 0 19 -15 27
-42z m299 32 c0 -5 -4 -10 -10 -10 -5 0 -10 -8 -10 -18 0 -10 -5 -23 -12 -30
-9 -9 -9 -18 0 -37 15 -33 2 -60 -34 -69 -56 -14 -93 24 -54 56 12 10 32 18
44 19 18 0 18 2 -6 10 -34 13 -42 36 -23 65 12 19 24 24 60 24 25 0 45 -4 45
-10z m55 -34 c-4 -25 -4 -50 0 -56 12 -19 43 18 50 61 4 23 12 39 20 39 10 0
12 -13 8 -57 -6 -62 -18 -87 -32 -64 -6 9 -11 10 -15 2 -9 -14 -53 -14 -61 0
-4 6 -4 35 0 65 4 38 11 54 21 54 12 0 14 -9 9 -44z m225 17 c0 -16 -3 -45 -6
-65 -6 -36 -7 -37 -53 -35 -45 2 -46 3 -49 38 -4 50 28 89 74 89 30 0 34 -3
34 -27z m120 11 c0 -8 -7 -14 -15 -14 -16 0 -29 -25 -39 -72 -4 -16 -13 -28
-20 -28 -8 0 -13 8 -11 18 2 9 7 37 10 63 5 43 7 45 40 46 24 1 35 -3 35 -13z
m124 -41 c-6 -58 -22 -90 -31 -66 -3 9 -9 10 -22 1 -37 -23 -69 10 -57 57 10
40 42 65 81 65 l35 0 -6 -57z m150 42 c10 -27 -6 -115 -21 -115 -11 0 -14 12
-11 51 2 34 -1 53 -9 56 -15 5 -43 -48 -43 -82 0 -16 -5 -25 -16 -25 -14 0
-15 7 -10 38 3 20 6 49 6 63 0 24 3 26 49 27 34 0 51 -4 55 -13z m244 -12 c3
-22 -7 -30 -60 -47 -11 -3 -15 -11 -12 -21 7 -17 39 -20 49 -5 4 6 11 8 16 4
17 -10 -12 -34 -42 -34 -54 0 -72 66 -31 113 23 26 76 19 80 -10z m140 0 c3
-22 -7 -30 -60 -47 -11 -3 -15 -11 -12 -21 7 -17 39 -20 49 -5 4 6 11 8 16 4
17 -10 -12 -34 -42 -34 -54 0 -72 66 -31 113 23 26 76 19 80 -10z m-5027 -254
c100 -22 162 -118 125 -195 -28 -60 -89 -87 -241 -105 -49 -6 -105 -14 -122
-19 -38 -9 -238 22 -281 44 -71 37 -131 140 -116 200 3 14 20 38 37 52 31 26
32 26 157 20 69 -3 152 -2 185 3 89 12 197 12 256 0z m7235 -171 c71 -52 164
-116 208 -143 115 -73 135 -110 116 -218 -23 -125 -71 -187 -147 -187 -77 0
-268 100 -409 214 -89 71 -109 105 -101 165 6 45 80 201 115 243 38 45 68 35
218 -74z m-7009 -214 c76 -37 111 -156 63 -217 -23 -29 -27 -30 -349 -48 -163
-9 -214 -9 -257 1 -42 10 -60 11 -80 1 -22 -10 -28 -8 -44 11 -26 31 -60 133
-60 179 0 60 9 63 244 75 339 17 442 17 483 -2z m6671 -148 c15 -8 45 -33 67
-56 50 -53 165 -141 278 -214 48 -31 87 -60 87 -64 0 -37 -47 -178 -81 -243
-35 -67 -51 -87 -93 -114 -130 -86 -181 -54 -321 203 -72 131 -100 222 -91
291 7 49 69 190 89 203 18 11 35 10 65 -6z m-6422 -208 c49 -31 92 -80 100
-114 9 -35 -22 -64 -104 -102 -86 -40 -179 -59 -348 -72 -140 -11 -181 -23
-208 -61 -14 -21 -17 -21 -39 -6 -46 30 -115 107 -137 152 -44 90 -5 158 107
191 75 22 316 43 468 40 111 -1 123 -3 161 -28z m6184 -125 c23 -27 72 -111
112 -193 39 -79 93 -177 119 -218 51 -77 67 -134 54 -194 -10 -44 -38 -97 -70
-131 -53 -55 -162 -92 -197 -65 -22 17 -238 564 -238 603 1 17 6 39 13 51 20
35 150 194 158 194 4 0 26 -21 49 -47z m-5997 -187 c33 -14 95 -75 161 -158
l37 -47 -23 -15 c-55 -36 -143 -66 -278 -96 -80 -18 -170 -43 -200 -57 -77
-34 -128 -39 -193 -18 -107 33 -185 149 -174 258 2 26 6 49 8 51 7 7 551 94
592 95 21 1 52 -5 70 -13z m5697 -162 c59 -56 147 -225 180 -347 32 -121 71
-190 117 -208 20 -7 21 -12 12 -36 -19 -51 -57 -108 -102 -151 -81 -79 -166
-64 -221 38 -43 80 -113 272 -141 385 -36 146 -33 233 9 294 26 38 66 69 89
71 4 0 30 -21 57 -46z m-5360 -242 c72 -50 85 -64 88 -90 4 -38 -12 -55 -118
-127 -41 -27 -124 -98 -186 -157 -62 -60 -118 -108 -125 -108 -29 0 -177 90
-235 143 -48 44 -68 71 -83 113 -26 67 -26 90 -2 129 49 82 344 172 521 160
47 -4 66 -12 140 -63z m5114 -64 c19 -18 31 -48 50 -131 14 -59 45 -169 68
-245 28 -94 42 -156 42 -198 1 -43 6 -68 18 -80 14 -16 14 -22 4 -36 -45 -62
-174 -121 -214 -99 -13 7 -27 37 -42 93 -12 46 -43 160 -70 253 -26 94 -53
194 -59 223 -27 130 -3 194 84 224 67 23 89 22 119 -4z m-4851 -130 c84 -44
227 -173 227 -205 0 -24 -66 -91 -274 -278 -151 -135 -165 -142 -247 -125
-102 22 -199 104 -199 169 1 85 183 297 354 412 60 41 100 48 139 27z m4505
-132 c40 -21 69 -55 101 -122 70 -145 108 -306 98 -421 -6 -81 -43 -144 -105
-184 -60 -38 -92 -37 -135 4 -31 29 -35 39 -45 121 -7 55 -31 146 -61 235 -62
185 -64 193 -50 244 15 56 43 93 87 117 44 23 74 25 110 6z m-4062 -183 c67
-33 114 -83 114 -122 0 -35 -29 -67 -212 -235 -75 -69 -159 -136 -186 -150
-46 -24 -52 -24 -104 -12 -70 16 -127 45 -150 77 -28 37 -26 109 5 161 33 56
44 65 222 197 146 108 151 110 203 111 38 0 69 -8 108 -27z m3743 -38 c34 -17
26 1 112 -254 67 -198 69 -205 60 -262 -19 -113 -53 -144 -228 -208 -127 -46
-139 -48 -152 -23 -34 65 -78 433 -68 575 4 58 9 73 33 99 73 76 177 108 243
73z m-3349 -140 c62 -31 93 -76 87 -125 -7 -56 -206 -372 -267 -423 -17 -15
-57 -34 -88 -43 -55 -17 -59 -16 -121 5 -73 26 -216 113 -232 142 -12 23 -11
24 59 112 75 95 172 190 293 286 l104 83 58 -6 c31 -3 80 -17 107 -31z m2995
-55 c23 -25 32 -115 41 -378 l7 -202 -42 -40 c-53 -51 -90 -70 -149 -76 -117
-12 -163 84 -161 334 1 173 13 259 40 289 74 80 221 121 264 73z m-2596 -94
c37 -19 66 -84 58 -132 -15 -89 -123 -267 -232 -379 -46 -48 -72 -66 -115 -80
-77 -26 -158 -24 -203 4 -40 24 -47 38 -47 90 0 43 14 66 85 141 29 30 87 107
129 171 68 105 110 151 170 186 29 17 121 16 155 -1z m2190 -5 c23 -23 25 -37
45 -344 9 -145 12 -246 7 -261 -22 -55 -146 -125 -224 -126 -84 0 -104 19
-141 130 -37 111 -46 178 -46 334 0 202 6 210 195 257 135 33 140 34 164 10z
m-1788 -67 c35 -18 79 -71 79 -95 0 -30 -22 -68 -96 -160 -37 -46 -100 -134
-140 -194 -55 -83 -84 -117 -114 -134 -26 -15 -42 -31 -46 -49 -12 -55 -11
-55 -62 -47 -91 14 -182 68 -182 109 0 21 217 334 340 490 79 101 139 122 221
80z m462 -41 c21 -20 22 -58 1 -142 -21 -83 -54 -148 -142 -283 -98 -147 -105
-164 -98 -209 6 -38 6 -38 -36 -50 -53 -15 -183 -15 -220 -1 -36 15 -68 68
-68 112 0 49 35 118 135 271 166 254 205 295 301 318 48 12 103 5 127 -16z
m854 -15 c9 -11 25 -321 27 -528 l1 -65 -45 -22 c-133 -64 -286 -89 -365 -59
-88 34 -108 91 -76 215 41 158 156 368 226 411 38 24 151 58 196 59 15 1 31
-5 36 -11z m-379 -45 c-3 -29 -34 -115 -76 -213 -39 -91 -78 -192 -88 -225
-34 -123 -72 -168 -169 -204 -70 -26 -90 -26 -162 1 -58 21 -123 74 -123 100
0 7 19 47 43 88 24 41 87 151 141 244 53 93 106 180 117 195 39 51 73 61 203
61 l119 0 -5 -47z"/>
<path d="M5472 9309 c-17 -27 -6 -38 15 -16 11 11 14 20 7 27 -6 6 -14 2 -22
-11z"/>
<path d="M5281 9297 c-6 -8 -8 -17 -5 -20 9 -8 44 11 44 23 0 15 -26 12 -39
-3z"/>
<path d="M5172 9191 c-14 -45 -15 -61 -4 -61 5 0 15 23 24 50 12 38 13 50 4
50 -7 0 -18 -17 -24 -39z"/>
<path d="M5345 9200 c-14 -16 -15 -20 -4 -20 16 0 39 19 39 32 0 14 -16 9 -35
-12z"/>
<path d="M5357 8961 c-16 -27 -16 -31 -2 -31 18 0 28 21 23 45 -2 12 -8 8 -21
-14z"/>
<path d="M5611 8924 c-11 -15 -21 -33 -21 -41 0 -23 39 4 46 33 9 36 0 39 -25
8z"/>
<path d="M4547 9284 c-4 -4 3 -20 15 -37 20 -28 22 -29 29 -11 15 37 10 54
-14 54 -13 0 -27 -3 -30 -6z"/>
<path d="M6220 9060 c26 -21 60 -27 60 -10 0 13 -34 30 -62 30 l-23 0 25 -20z"/>
<path d="M4114 9129 c-12 -19 12 -32 36 -19 18 10 20 14 9 21 -19 12 -36 11
-45 -2z"/>
<path d="M3996 9063 c-3 -21 -6 -58 -6 -82 0 -43 1 -44 19 -27 24 22 35 83 22
119 -15 38 -27 34 -35 -10z"/>
<path d="M4010 8872 c-17 -14 -21 -24 -15 -41 8 -27 10 -26 30 22 17 42 16 44
-15 19z"/>
<path d="M6717 9050 c-4 -14 0 -20 13 -20 20 0 43 23 33 33 -13 14 -41 6 -46
-13z"/>
<path d="M6808 8943 c-34 -5 -38 -33 -5 -33 25 1 60 24 50 33 -3 4 -9 6 -12 6
-3 -1 -18 -4 -33 -6z"/>
<path d="M6826 8782 c-56 -35 -58 -37 -32 -40 28 -4 67 24 87 61 12 22 14 23
-55 -21z"/>
<path d="M6507 8722 c-17 -19 -23 -62 -9 -62 4 0 20 11 37 24 25 20 28 26 16
40 -17 20 -24 20 -44 -2z"/>
<path d="M6668 8682 c-31 -20 -57 -40 -58 -44 -1 -18 59 -6 90 17 38 28 51 45
44 57 -8 12 -14 9 -76 -30z"/>
<path d="M3763 8986 c5 -15 37 -20 49 -8 6 6 -1 11 -22 14 -19 3 -29 1 -27 -6z"/>
<path d="M3664 8814 c-4 -17 -1 -31 9 -42 22 -22 30 -11 22 32 -8 42 -22 47
-31 10z"/>
<path d="M3612 8520 c0 -19 2 -27 5 -17 2 9 2 25 0 35 -3 9 -5 1 -5 -18z"/>
<path d="M3567 8393 c-4 -3 -7 -15 -7 -25 0 -26 24 -17 28 10 3 21 -8 29 -21
15z"/>
<path d="M7480 8745 c0 -14 2 -25 4 -25 2 0 12 -3 21 -6 16 -6 16 -5 1 25 -20
38 -26 39 -26 6z"/>
<path d="M7268 8729 c-18 -10 -24 -40 -11 -52 9 -9 53 33 53 50 0 15 -18 16
-42 2z"/>
<path d="M7015 8580 c-27 -29 -15 -32 20 -4 20 16 25 24 14 24 -9 0 -24 -9
-34 -20z"/>
<path d="M6857 8534 c-9 -9 2 -24 17 -24 7 0 21 7 32 15 18 14 17 14 -12 15
-17 0 -34 -3 -37 -6z"/>
<path d="M3060 8605 c-7 -8 -9 -22 -6 -31 5 -13 9 -14 21 -4 16 13 21 50 6 50
-5 0 -14 -7 -21 -15z"/>
<path d="M3210 8580 c-14 -34 -11 -43 14 -34 17 6 22 49 7 58 -5 3 -14 -8 -21
-24z"/>
<path d="M3347 8545 c-13 -47 -19 -125 -8 -125 26 0 40 78 22 125 l-8 20 -6
-20z"/>
<path d="M3331 8348 c-6 -17 -11 -52 -11 -77 0 -42 1 -44 17 -29 19 20 31 122
15 132 -5 3 -15 -8 -21 -26z"/>
<path d="M3190 8225 c-10 -12 -9 -20 4 -40 21 -32 51 -34 42 -2 -3 12 -6 30
-6 40 0 21 -23 22 -40 2z"/>
<path d="M7650 8599 c-41 -26 -59 -44 -53 -50 22 -22 133 46 133 82 0 16 -16
10 -80 -32z"/>
<path d="M7803 8564 c-8 -20 13 -42 27 -28 12 12 3 44 -11 44 -5 0 -12 -7 -16
-16z"/>
<path d="M7505 8484 c-23 -23 -12 -28 31 -14 26 9 33 15 23 21 -21 13 -36 11
-54 -7z"/>
<path d="M2734 8206 c-16 -13 -27 -26 -24 -29 10 -10 75 18 75 32 0 24 -21 23
-51 -3z"/>
<path d="M8184 8305 c-14 -43 -9 -49 27 -28 26 15 26 18 12 40 -20 31 -26 29
-39 -12z"/>
<path d="M2470 7636 c10 -45 20 -60 32 -48 13 13 -1 61 -22 72 -16 9 -17 6
-10 -24z"/>
<path d="M2080 7760 c6 -11 15 -20 19 -20 5 0 7 9 4 20 -3 11 -12 20 -20 20
-11 0 -11 -4 -3 -20z"/>
<path d="M1976 7621 c-4 -5 -3 -17 0 -26 5 -13 8 -14 15 -3 5 7 9 19 9 26 0
14 -16 16 -24 3z"/>
<path d="M2084 7614 c3 -8 6 -25 6 -37 0 -18 2 -19 10 -7 15 23 12 47 -6 54
-12 5 -15 2 -10 -10z"/>
<path d="M1978 7494 c-8 -13 7 -47 26 -63 26 -22 27 -8 2 33 -13 21 -26 35
-28 30z"/>
<path d="M2280 7456 c0 -24 16 -43 26 -33 8 7 -7 57 -17 57 -5 0 -9 -11 -9
-24z"/>
<path d="M8480 7770 c-33 -26 -8 -26 45 -1 l40 19 -30 1 c-16 0 -41 -8 -55
-19z"/>
<path d="M8612 7644 c9 -10 24 -14 33 -10 23 9 9 26 -23 26 -24 0 -25 -1 -10
-16z"/>
<path d="M8787 7623 c-13 -12 -7 -23 13 -23 11 0 20 7 20 15 0 15 -21 21 -33
8z"/>
<path d="M8415 7490 c3 -5 17 -10 30 -10 13 0 27 5 30 10 4 6 -8 10 -30 10
-22 0 -34 -4 -30 -10z"/>
<path d="M8540 7267 c-24 -11 -23 -11 19 -15 30 -2 49 2 60 12 14 15 12 16
-19 15 -19 0 -46 -5 -60 -12z"/>
<path d="M1532 7049 c-16 -25 -16 -25 26 -34 38 -8 41 3 9 33 l-23 21 -12 -20z"/>
<path d="M9060 6882 c0 -16 6 -37 14 -47 13 -18 14 -18 20 2 7 22 -11 73 -26
73 -4 0 -8 -13 -8 -28z"/>
<path d="M5496 6890 c-58 -11 -74 -52 -36 -90 42 -42 101 -10 104 55 1 44 -5
48 -68 35z"/>
<path d="M1384 6616 c-8 -21 3 -49 16 -41 5 3 10 15 10 25 0 25 -18 36 -26 16z"/>
<path d="M1350 6461 c11 -16 38 -44 60 -61 31 -25 40 -28 40 -15 0 42 -58 104
-98 105 l-23 0 21 -29z"/>
<path d="M1510 6342 c0 -21 18 -42 37 -42 11 0 10 6 -2 30 -17 33 -35 40 -35
12z"/>
<path d="M9360 6492 c0 -14 23 -32 42 -32 23 0 23 9 1 26 -20 15 -43 18 -43 6z"/>
<path d="M8942 6438 c-19 -19 -14 -25 24 -33 39 -7 57 6 47 32 -6 16 -55 17
-71 1z"/>
<path d="M9310 6346 c0 -21 28 -39 47 -31 16 6 15 8 -7 25 -30 23 -40 25 -40
6z"/>
<path d="M8996 6299 c19 -22 89 -58 112 -59 6 0 12 6 12 13 0 7 -29 25 -65 40
-79 33 -83 33 -59 6z"/>
<path d="M9183 6235 c23 -20 38 -25 80 -24 l52 0 -69 25 c-87 30 -98 30 -63
-1z"/>
<path d="M4630 5916 c0 -8 -3 -21 -6 -29 -4 -12 18 -21 107 -41 61 -15 114
-25 116 -22 8 7 -87 58 -153 83 -51 18 -64 20 -64 9z"/>
<path d="M4649 5752 c18 -33 87 -89 126 -102 48 -16 115 -7 166 22 l40 22
-163 38 c-90 21 -167 38 -171 38 -4 0 -3 -8 2 -18z"/>
<path d="M1280 6240 l-25 -20 23 0 c12 0 25 7 29 15 9 24 0 25 -27 5z"/>
<path d="M1332 6043 c2 -24 8 -28 32 -28 42 0 42 18 1 38 l-36 17 3 -27z"/>
<path d="M1520 5842 c0 -10 33 -42 43 -42 15 0 5 19 -18 34 -14 9 -25 13 -25
8z"/>
<path d="M1616 5714 c-4 -10 -1 -24 8 -33 22 -22 30 -7 13 24 -12 24 -15 25
-21 9z"/>
<path d="M5993 6045 c-157 -79 -157 -301 0 -380 30 -14 68 -25 92 -25 60 0
143 45 180 98 27 39 30 52 30 117 0 65 -3 78 -30 117 -37 53 -120 98 -180 98
-24 0 -62 -11 -92 -25z"/>
<path d="M9040 6040 c0 -10 39 -34 46 -27 3 2 2 12 -2 21 -7 17 -44 23 -44 6z"/>
<path d="M9170 5961 c0 -9 52 -22 60 -15 7 7 -23 24 -42 24 -10 0 -18 -4 -18
-9z"/>
<path d="M9428 5859 c-33 -19 -21 -39 22 -39 41 0 52 14 28 38 -14 14 -27 15
-50 1z"/>
<path d="M9601 5706 c-8 -9 -10 -23 -6 -33 6 -16 8 -15 16 6 13 32 7 47 -10
27z"/>
<path d="M1400 5585 c24 -24 46 -43 48 -41 11 11 -13 49 -41 67 -52 31 -54 22
-7 -26z"/>
<path d="M1238 5541 c21 -38 34 -40 30 -3 -2 19 -9 28 -25 30 -23 3 -23 3 -5
-27z"/>
<path d="M1480 5513 c0 -11 55 -75 81 -93 l27 -20 -5 22 c-7 29 -59 85 -84 91
-11 3 -19 3 -19 0z"/>
<path d="M1130 5454 c0 -16 23 -44 35 -44 20 0 19 20 -2 36 -19 14 -33 18 -33
8z"/>
<path d="M1511 5327 c-16 -16 -14 -25 13 -42 19 -13 29 -14 46 -5 24 13 19 25
-19 45 -21 10 -31 11 -40 2z"/>
<path d="M9405 5504 c38 -29 55 -36 55 -21 0 21 -22 37 -49 37 -25 -1 -26 -1
-6 -16z"/>
<path d="M9520 5500 c0 -5 14 -20 31 -34 23 -19 42 -26 74 -26 24 0 46 4 49 8
3 5 -31 20 -75 34 -43 14 -79 23 -79 18z"/>
<path d="M9654 5336 c-4 -9 -2 -22 5 -29 8 -8 14 -8 23 1 10 10 8 16 -5 29
-15 15 -17 15 -23 -1z"/>
<path d="M9683 4873 c-20 -7 -15 -19 12 -31 35 -16 35 -16 35 13 0 25 -16 31
-47 18z"/>
<path d="M4232 5194 c-98 -50 -116 -231 -30 -311 75 -70 197 -50 248 40 47 82
26 209 -43 261 -37 27 -131 33 -175 10z"/>
<path d="M3036 5149 c-42 -102 -66 -163 -66 -171 0 -4 38 -8 85 -8 47 0 85 2
85 4 0 6 -81 200 -86 205 -2 2 -10 -11 -18 -30z"/>
<path d="M3350 5025 l0 -188 83 5 c126 6 180 46 195 143 14 91 -8 151 -72 199
-22 17 -46 22 -117 24 l-89 4 0 -187z"/>
<path d="M3810 5120 l0 -90 28 0 c88 1 152 41 152 94 -1 58 -41 86 -124 86
l-56 0 0 -90z"/>
<path d="M5320 5025 l0 -188 83 5 c103 5 143 25 175 88 30 58 28 164 -4 207
-42 56 -69 68 -165 71 l-89 4 0 -187z"/>
<path d="M7330 5119 l0 -92 62 7 c94 9 133 45 121 110 -8 41 -55 66 -125 66
l-58 0 0 -91z"/>
<path d="M1247 4973 c-10 -10 -8 -73 2 -73 9 0 21 34 21 63 0 17 -11 22 -23
10z"/>
<path d="M1500 4375 c14 -8 39 -14 55 -14 29 0 29 0 11 14 -11 8 -36 15 -55
15 l-36 -1 25 -14z"/>
<path d="M5530 4611 c-15 -29 -12 -67 6 -86 23 -23 44 -2 44 44 0 55 -30 79
-50 42z"/>
<path d="M5794 4615 c-8 -21 2 -45 19 -45 8 0 20 7 27 15 10 12 10 18 0 30 -7
8 -19 15 -27 15 -7 0 -16 -7 -19 -15z"/>
<path d="M4855 4570 c-4 -6 7 -10 27 -10 25 0 29 3 18 10 -19 13 -37 13 -45 0z"/>
<path d="M9451 4306 c3 -3 21 -16 42 -30 27 -18 37 -21 37 -11 0 18 -38 45
-64 45 -11 0 -17 -2 -15 -4z"/>
<path d="M9222 4170 c1 -13 9 -25 16 -28 17 -5 15 23 -4 39 -14 11 -15 10 -12
-11z"/>
<path d="M9460 4120 c0 -10 9 -24 21 -30 20 -11 20 -11 4 19 -18 36 -25 39
-25 11z"/>
<path d="M9526 3981 c-8 -12 21 -34 34 -26 8 5 8 11 -1 21 -13 16 -25 18 -33
5z"/>
<path d="M1167 4164 c-11 -11 3 -24 25 -24 17 0 18 2 8 15 -13 16 -23 19 -33
9z"/>
<path d="M1537 4123 c-4 -3 2 -13 14 -21 24 -17 37 -9 19 13 -14 16 -23 19
-33 8z"/>
<path d="M1286 4071 c-6 -10 44 -34 53 -26 3 4 -3 13 -13 21 -23 16 -33 18
-40 5z"/>
<path d="M1220 3986 c0 -15 27 -29 34 -18 3 5 -4 13 -15 20 -15 10 -19 10 -19
-2z"/>
<path d="M1353 3884 c17 -9 37 -12 50 -8 21 7 21 7 2 15 -11 4 -33 8 -50 8
l-30 0 28 -15z"/>
<path d="M4682 4008 c-14 -14 -16 -64 -3 -72 12 -8 39 25 43 54 3 28 -20 38
-40 18z"/>
<path d="M6936 3998 c-32 -45 -8 -90 26 -48 22 27 24 70 4 70 -8 0 -22 -10
-30 -22z"/>
<path d="M9102 3938 c9 -13 30 -32 48 -42 l32 -19 -11 21 c-12 23 -58 62 -74
62 -5 0 -3 -10 5 -22z"/>
<path d="M3736 3998 c-20 -29 -21 -68 -1 -68 21 0 48 45 40 70 -8 26 -20 25
-39 -2z"/>
<path d="M3981 4006 c-15 -18 -11 -68 6 -73 6 -2 19 7 28 21 28 43 -3 90 -34
52z"/>
<path d="M4358 4003 c-23 -27 -29 -63 -12 -70 23 -9 44 17 44 53 0 38 -9 43
-32 17z"/>
<path d="M4829 4004 c-11 -14 -10 -15 11 -12 13 1 25 9 28 16 5 17 -23 15 -39
-4z"/>
<path d="M5260 4005 c-8 -9 -8 -15 -2 -15 18 0 42 12 42 21 0 14 -26 10 -40
-6z"/>
<path d="M5713 4004 c-7 -18 11 -39 26 -30 17 11 13 46 -4 46 -9 0 -18 -7 -22
-16z"/>
<path d="M5703 3913 c-7 -2 -13 -9 -13 -14 0 -15 53 -6 58 9 4 12 -21 15 -45
5z"/>
<path d="M6016 4004 c-18 -17 -21 -59 -7 -69 13 -8 41 35 41 62 0 27 -12 29
-34 7z"/>
<path d="M6256 3998 c-26 -36 -17 -77 11 -60 12 7 33 55 33 73 0 17 -29 9 -44
-13z"/>
<path d="M6656 4005 c-6 -16 3 -19 28 -9 22 8 20 24 -3 24 -10 0 -21 -7 -25
-15z"/>
<path d="M6796 4005 c-6 -16 3 -19 28 -9 22 8 20 24 -3 24 -10 0 -21 -7 -25
-15z"/>
<path d="M9137 3302 c-29 -30 -35 -52 -14 -52 15 0 55 66 46 75 -3 2 -18 -8
-32 -23z"/>
<path d="M1423 3300 c-30 -5 -31 -6 -20 -33 l12 -29 23 32 c13 17 22 33 20 34
-1 1 -17 -1 -35 -4z"/>
<path d="M8700 3089 c22 -42 36 -46 54 -15 9 14 6 21 -13 37 -13 10 -32 19
-42 19 -19 0 -19 -1 1 -41z"/>
<path d="M8640 2981 c0 -45 21 -95 43 -104 11 -4 9 10 -8 64 -27 85 -35 95
-35 40z"/>
<path d="M8707 2833 c-14 -13 -7 -56 14 -84 32 -46 39 -34 17 31 -21 64 -21
64 -31 53z"/>
<path d="M9000 2820 c0 -18 20 -50 31 -50 18 0 5 55 -13 58 -10 2 -18 -2 -18
-8z"/>
<path d="M8869 2764 c-10 -13 -9 -19 9 -37 l22 -21 0 31 c0 38 -13 49 -31 27z"/>
<path d="M1651 2896 c-18 -21 10 -40 34 -22 18 13 18 14 -2 24 -16 9 -24 8
-32 -2z"/>
<path d="M1920 2832 c0 -6 10 -16 21 -23 17 -9 25 -8 37 5 14 13 14 16 2 16
-8 0 -25 3 -37 6 -14 4 -23 2 -23 -4z"/>
<path d="M1755 2801 c-11 -5 -28 -17 -37 -28 -17 -18 -16 -19 63 -7 44 6 82
14 86 17 8 8 -42 27 -70 26 -12 0 -31 -4 -42 -8z"/>
<path d="M8467 2796 c-4 -9 -3 -26 2 -38 l8 -22 11 20 c9 16 8 26 -2 39 -12
16 -13 16 -19 1z"/>
<path d="M8490 2644 c0 -11 7 -29 15 -40 19 -26 20 1 0 36 -13 23 -14 23 -15
4z"/>
<path d="M8540 2371 c0 -6 11 -23 24 -38 l24 -28 7 27 c4 15 4 32 0 37 -8 14
-55 14 -55 2z"/>
<path d="M8525 2139 c-4 -6 -5 -12 -4 -14 7 -7 59 8 59 16 0 13 -47 11 -55 -2z"/>
<path d="M1860 2575 c0 -14 5 -25 10 -25 6 0 10 11 10 25 0 14 -4 25 -10 25
-5 0 -10 -11 -10 -25z"/>
<path d="M2062 2517 c-17 -10 -20 -15 -10 -25 19 -19 44 -14 56 13 10 21 9 25
-6 25 -9 -1 -27 -6 -40 -13z"/>
<path d="M2353 2523 c-25 -5 -32 -23 -9 -23 22 0 46 11 46 21 0 5 -3 8 -7 8
-5 -1 -18 -4 -30 -6z"/>
<path d="M2492 2508 c5 -15 48 -24 48 -10 0 10 -23 22 -42 22 -5 0 -8 -6 -6
-12z"/>
<path d="M8273 2180 c4 -14 7 -36 7 -50 0 -20 2 -22 10 -10 15 23 12 56 -7 71
-15 13 -16 11 -10 -11z"/>
<path d="M8336 2075 c-18 -47 17 -135 56 -143 14 -3 12 9 -12 73 -33 88 -35
92 -44 70z"/>
<path d="M8282 1863 c2 -10 10 -18 18 -18 22 0 18 29 -3 33 -14 3 -18 -1 -15
-15z"/>
<path d="M2573 2293 c-34 -13 -6 -23 65 -23 70 1 75 2 58 15 -19 14 -96 19
-123 8z"/>
<path d="M2424 2270 c-12 -5 -25 -14 -30 -21 -5 -9 2 -11 32 -6 21 4 55 7 74
7 33 1 34 1 16 15 -22 16 -59 18 -92 5z"/>
<path d="M2753 2207 c-26 -10 -30 -15 -22 -29 13 -24 56 -23 69 1 22 42 10 49
-47 28z"/>
<path d="M2370 2116 c0 -8 14 -16 33 -19 37 -5 42 -3 34 18 -8 19 -67 21 -67
1z"/>
<path d="M2385 1971 c-7 -12 31 -25 45 -16 5 3 10 10 10 16 0 12 -47 12 -55 0z"/>
<path d="M7935 1543 c9 -40 18 -45 44 -27 l23 16 -31 19 c-41 25 -44 24 -36
-8z"/>
<path d="M2840 1761 c0 -19 46 -68 56 -58 8 8 -26 65 -43 71 -8 3 -13 -2 -13
-13z"/>
<path d="M3482 1624 c-12 -8 -27 -25 -33 -36 -11 -20 -9 -20 32 4 44 26 61 48
37 48 -7 0 -24 -7 -36 -16z"/>
<path d="M7113 1499 c-16 -16 -17 -49 -3 -49 13 0 23 24 18 45 -2 13 -5 14
-15 4z"/>
<path d="M7367 1363 c9 -57 22 -76 23 -31 0 41 -8 68 -20 68 -5 0 -6 -17 -3
-37z"/>
<path d="M7225 1280 c-10 -11 -15 -26 -11 -36 8 -21 14 -15 26 25 10 36 9 37
-15 11z"/>
<path d="M7313 1205 c-9 -25 2 -27 22 -5 17 18 17 20 1 20 -9 0 -19 -7 -23
-15z"/>
<path d="M7153 1124 c-3 -8 -1 -20 6 -27 8 -8 11 -4 11 16 0 30 -7 35 -17 11z"/>
<path d="M3681 1457 c-6 -8 -8 -17 -5 -20 8 -7 54 14 54 25 0 13 -36 9 -49 -5z"/>
<path d="M3582 1238 c-21 -21 -13 -27 18 -17 17 6 30 15 30 20 0 13 -34 11
-48 -3z"/>
<path d="M3759 1179 l-33 -41 32 16 c17 9 34 25 37 37 12 36 -1 31 -36 -12z"/>
<path d="M3434 1195 c-15 -11 -16 -14 -4 -15 21 0 44 16 33 23 -6 4 -19 0 -29
-8z"/>
<path d="M3590 1120 c0 -5 9 -10 20 -10 11 0 20 5 20 10 0 6 -9 10 -20 10 -11
0 -20 -4 -20 -10z"/>
<path d="M6862 1426 c-7 -16 -10 -38 -6 -48 10 -33 26 -5 22 38 l-4 39 -12
-29z"/>
<path d="M6340 1005 c0 -10 10 -15 34 -15 38 0 55 14 30 24 -29 11 -64 6 -64
-9z"/>
<path d="M4255 854 c-14 -22 -15 -28 -4 -35 26 -16 39 -9 39 20 0 40 -14 46
-35 15z"/>
<path d="M4946 971 c-27 -29 -28 -31 -9 -31 25 0 46 23 41 45 -2 13 -9 10 -32
-14z"/>
<path d="M4913 865 c-38 -16 -65 -64 -61 -108 3 -30 5 -28 50 46 26 42 47 77
45 77 -1 -1 -16 -7 -34 -15z"/>
<path d="M4706 781 c-9 -15 23 -36 36 -23 5 5 7 15 4 21 -9 13 -33 14 -40 2z"/>
<path d="M5951 1227 c-18 -45 -17 -61 3 -65 34 -7 50 54 21 78 -12 10 -16 8
-24 -13z"/>
<path d="M5823 1206 c-31 -26 -71 -101 -60 -113 8 -7 39 29 73 85 32 52 27 62
-13 28z"/>
<path d="M5717 1042 c-20 -21 -37 -66 -37 -95 0 -18 3 -16 21 13 12 19 30 50
41 68 15 25 17 32 5 32 -7 0 -21 -8 -30 -18z"/>
<path d="M5774 875 c-11 -27 0 -36 24 -20 12 9 22 20 22 26 0 15 -40 10 -46
-6z"/>
<path d="M5910 800 c-23 -23 -23 -25 -6 -28 23 -5 39 11 34 34 -3 17 -5 17
-28 -6z"/>
<path d="M5551 1206 l-24 -26 22 0 c22 0 36 20 29 40 -2 6 -14 0 -27 -14z"/>
<path d="M5451 1102 c-14 -26 -7 -42 10 -25 6 6 9 19 7 29 -3 17 -5 17 -17 -4z"/>
<path d="M5277 903 c-2 -5 -7 -20 -11 -35 -6 -25 -4 -28 18 -28 16 0 27 7 31
20 9 29 -25 67 -38 43z"/>
<path d="M5087 763 c-9 -9 12 -33 29 -33 17 0 18 12 2 28 -14 14 -22 15 -31 5z"/>
</g>
</svg>
